<mxfile host="app.diagrams.net" modified="2023-09-10T15:37:06.556Z" agent="Mozilla/5.0 (Windows NT 10.0; Win64; x64) AppleWebKit/537.36 (KHTML, like Gecko) Chrome/116.0.0.0 Safari/537.36" etag="SdqW0Bj9wE7WWVbO2eFC" version="21.7.4" type="device">
  <diagram id="C5RBs43oDa-KdzZeNtuy" name="Page-1">
    <mxGraphModel dx="2294" dy="800" grid="1" gridSize="10" guides="1" tooltips="1" connect="1" arrows="1" fold="1" page="1" pageScale="1" pageWidth="827" pageHeight="1169" math="0" shadow="0">
      <root>
        <mxCell id="WIyWlLk6GJQsqaUBKTNV-0" />
        <mxCell id="WIyWlLk6GJQsqaUBKTNV-1" parent="WIyWlLk6GJQsqaUBKTNV-0" />
        <mxCell id="7I8WZK7cO3IiVVHnGnqm-39" value="Uçuş" style="swimlane;fontStyle=0;align=center;verticalAlign=top;childLayout=stackLayout;horizontal=1;startSize=26;horizontalStack=0;resizeParent=1;resizeLast=0;collapsible=1;marginBottom=0;rounded=0;shadow=0;strokeWidth=1;" vertex="1" parent="WIyWlLk6GJQsqaUBKTNV-1">
          <mxGeometry x="334" y="70" width="336" height="346" as="geometry">
            <mxRectangle x="130" y="380" width="160" height="26" as="alternateBounds" />
          </mxGeometry>
        </mxCell>
        <mxCell id="7I8WZK7cO3IiVVHnGnqm-42" value="- ucusId: int" style="text;html=1;align=center;verticalAlign=middle;resizable=0;points=[];autosize=1;strokeColor=none;fillColor=none;" vertex="1" parent="7I8WZK7cO3IiVVHnGnqm-39">
          <mxGeometry y="26" width="336" height="30" as="geometry" />
        </mxCell>
        <mxCell id="7I8WZK7cO3IiVVHnGnqm-43" value="+ kalkisYeri: Havaalani" style="text;html=1;align=center;verticalAlign=middle;resizable=0;points=[];autosize=1;strokeColor=none;fillColor=none;" vertex="1" parent="7I8WZK7cO3IiVVHnGnqm-39">
          <mxGeometry y="56" width="336" height="30" as="geometry" />
        </mxCell>
        <mxCell id="7I8WZK7cO3IiVVHnGnqm-64" value="+ inisYeri: Havaalani" style="text;html=1;align=center;verticalAlign=middle;resizable=0;points=[];autosize=1;strokeColor=none;fillColor=none;" vertex="1" parent="7I8WZK7cO3IiVVHnGnqm-39">
          <mxGeometry y="86" width="336" height="30" as="geometry" />
        </mxCell>
        <mxCell id="7I8WZK7cO3IiVVHnGnqm-45" value="+ pilot: Pilot" style="text;html=1;align=center;verticalAlign=middle;resizable=0;points=[];autosize=1;strokeColor=none;fillColor=none;" vertex="1" parent="7I8WZK7cO3IiVVHnGnqm-39">
          <mxGeometry y="116" width="336" height="30" as="geometry" />
        </mxCell>
        <mxCell id="7I8WZK7cO3IiVVHnGnqm-46" value="+ yardimciPilot: YardımciPilot" style="text;html=1;align=center;verticalAlign=middle;resizable=0;points=[];autosize=1;strokeColor=none;fillColor=none;" vertex="1" parent="7I8WZK7cO3IiVVHnGnqm-39">
          <mxGeometry y="146" width="336" height="30" as="geometry" />
        </mxCell>
        <mxCell id="7I8WZK7cO3IiVVHnGnqm-55" value="+ kalkisSaati: localDateTime" style="text;html=1;align=center;verticalAlign=middle;resizable=0;points=[];autosize=1;strokeColor=none;fillColor=none;" vertex="1" parent="7I8WZK7cO3IiVVHnGnqm-39">
          <mxGeometry y="176" width="336" height="30" as="geometry" />
        </mxCell>
        <mxCell id="7I8WZK7cO3IiVVHnGnqm-67" value="+ inisSaati: localDateTime" style="text;html=1;align=center;verticalAlign=middle;resizable=0;points=[];autosize=1;strokeColor=none;fillColor=none;" vertex="1" parent="7I8WZK7cO3IiVVHnGnqm-39">
          <mxGeometry y="206" width="336" height="30" as="geometry" />
        </mxCell>
        <mxCell id="7I8WZK7cO3IiVVHnGnqm-40" value="" style="line;html=1;strokeWidth=1;align=left;verticalAlign=middle;spacingTop=-1;spacingLeft=3;spacingRight=3;rotatable=0;labelPosition=right;points=[];portConstraint=eastwest;" vertex="1" parent="7I8WZK7cO3IiVVHnGnqm-39">
          <mxGeometry y="236" width="336" height="50" as="geometry" />
        </mxCell>
        <mxCell id="7I8WZK7cO3IiVVHnGnqm-65" value="+ ucus (Pilot, YardımcıPilot): Pilotlar" style="text;html=1;align=center;verticalAlign=middle;resizable=0;points=[];autosize=1;strokeColor=none;fillColor=none;" vertex="1" parent="7I8WZK7cO3IiVVHnGnqm-39">
          <mxGeometry y="286" width="336" height="30" as="geometry" />
        </mxCell>
        <mxCell id="7I8WZK7cO3IiVVHnGnqm-94" value="" style="edgeStyle=orthogonalEdgeStyle;rounded=0;orthogonalLoop=1;jettySize=auto;html=1;entryX=0.5;entryY=1;entryDx=0;entryDy=0;" edge="1" parent="WIyWlLk6GJQsqaUBKTNV-1" source="7I8WZK7cO3IiVVHnGnqm-57" target="7I8WZK7cO3IiVVHnGnqm-39">
          <mxGeometry relative="1" as="geometry" />
        </mxCell>
        <mxCell id="7I8WZK7cO3IiVVHnGnqm-57" value="Havaalani" style="swimlane;fontStyle=0;align=center;verticalAlign=top;childLayout=stackLayout;horizontal=1;startSize=26;horizontalStack=0;resizeParent=1;resizeLast=0;collapsible=1;marginBottom=0;rounded=0;shadow=0;strokeWidth=1;" vertex="1" parent="WIyWlLk6GJQsqaUBKTNV-1">
          <mxGeometry x="422" y="510" width="160" height="160" as="geometry">
            <mxRectangle x="130" y="380" width="160" height="26" as="alternateBounds" />
          </mxGeometry>
        </mxCell>
        <mxCell id="7I8WZK7cO3IiVVHnGnqm-58" value="- havaalaniId: int" style="text;html=1;align=center;verticalAlign=middle;resizable=0;points=[];autosize=1;strokeColor=none;fillColor=none;" vertex="1" parent="7I8WZK7cO3IiVVHnGnqm-57">
          <mxGeometry y="26" width="160" height="30" as="geometry" />
        </mxCell>
        <mxCell id="7I8WZK7cO3IiVVHnGnqm-83" value="+ havaalaniAdi: String" style="text;html=1;align=center;verticalAlign=middle;resizable=0;points=[];autosize=1;strokeColor=none;fillColor=none;" vertex="1" parent="7I8WZK7cO3IiVVHnGnqm-57">
          <mxGeometry y="56" width="160" height="30" as="geometry" />
        </mxCell>
        <mxCell id="7I8WZK7cO3IiVVHnGnqm-61" value="" style="line;html=1;strokeWidth=1;align=left;verticalAlign=middle;spacingTop=-1;spacingLeft=3;spacingRight=3;rotatable=0;labelPosition=right;points=[];portConstraint=eastwest;" vertex="1" parent="7I8WZK7cO3IiVVHnGnqm-57">
          <mxGeometry y="86" width="160" height="50" as="geometry" />
        </mxCell>
        <mxCell id="7I8WZK7cO3IiVVHnGnqm-68" value="Ucak" style="swimlane;fontStyle=0;align=center;verticalAlign=top;childLayout=stackLayout;horizontal=1;startSize=26;horizontalStack=0;resizeParent=1;resizeLast=0;collapsible=1;marginBottom=0;rounded=0;shadow=0;strokeWidth=1;" vertex="1" parent="WIyWlLk6GJQsqaUBKTNV-1">
          <mxGeometry x="-150" y="230" width="160" height="190" as="geometry">
            <mxRectangle x="130" y="380" width="160" height="26" as="alternateBounds" />
          </mxGeometry>
        </mxCell>
        <mxCell id="7I8WZK7cO3IiVVHnGnqm-69" value="+ tip: String" style="text;html=1;align=center;verticalAlign=middle;resizable=0;points=[];autosize=1;strokeColor=none;fillColor=none;" vertex="1" parent="7I8WZK7cO3IiVVHnGnqm-68">
          <mxGeometry y="26" width="160" height="30" as="geometry" />
        </mxCell>
        <mxCell id="7I8WZK7cO3IiVVHnGnqm-92" value="+ pilotSayisi: int" style="text;html=1;align=center;verticalAlign=middle;resizable=0;points=[];autosize=1;strokeColor=none;fillColor=none;" vertex="1" parent="7I8WZK7cO3IiVVHnGnqm-68">
          <mxGeometry y="56" width="160" height="30" as="geometry" />
        </mxCell>
        <mxCell id="7I8WZK7cO3IiVVHnGnqm-72" value="" style="line;html=1;strokeWidth=1;align=left;verticalAlign=middle;spacingTop=-1;spacingLeft=3;spacingRight=3;rotatable=0;labelPosition=right;points=[];portConstraint=eastwest;" vertex="1" parent="7I8WZK7cO3IiVVHnGnqm-68">
          <mxGeometry y="86" width="160" height="50" as="geometry" />
        </mxCell>
        <mxCell id="7I8WZK7cO3IiVVHnGnqm-73" value="+ calisma (): boolean" style="text;html=1;align=center;verticalAlign=middle;resizable=0;points=[];autosize=1;strokeColor=none;fillColor=none;" vertex="1" parent="7I8WZK7cO3IiVVHnGnqm-68">
          <mxGeometry y="136" width="160" height="30" as="geometry" />
        </mxCell>
        <mxCell id="7I8WZK7cO3IiVVHnGnqm-75" value="Pilotlar" style="swimlane;fontStyle=0;align=center;verticalAlign=top;childLayout=stackLayout;horizontal=1;startSize=26;horizontalStack=0;resizeParent=1;resizeLast=0;collapsible=1;marginBottom=0;rounded=0;shadow=0;strokeWidth=1;" vertex="1" parent="WIyWlLk6GJQsqaUBKTNV-1">
          <mxGeometry x="80" y="360" width="165" height="200" as="geometry">
            <mxRectangle x="130" y="380" width="160" height="26" as="alternateBounds" />
          </mxGeometry>
        </mxCell>
        <mxCell id="7I8WZK7cO3IiVVHnGnqm-76" value="+ deneyim: int" style="text;html=1;align=center;verticalAlign=middle;resizable=0;points=[];autosize=1;strokeColor=none;fillColor=none;" vertex="1" parent="7I8WZK7cO3IiVVHnGnqm-75">
          <mxGeometry y="26" width="165" height="30" as="geometry" />
        </mxCell>
        <mxCell id="7I8WZK7cO3IiVVHnGnqm-82" value="+ sirket: HavaYoluSirketi" style="text;html=1;align=center;verticalAlign=middle;resizable=0;points=[];autosize=1;strokeColor=none;fillColor=none;" vertex="1" parent="7I8WZK7cO3IiVVHnGnqm-75">
          <mxGeometry y="56" width="165" height="30" as="geometry" />
        </mxCell>
        <mxCell id="7I8WZK7cO3IiVVHnGnqm-79" value="" style="line;html=1;strokeWidth=1;align=left;verticalAlign=middle;spacingTop=-1;spacingLeft=3;spacingRight=3;rotatable=0;labelPosition=right;points=[];portConstraint=eastwest;" vertex="1" parent="7I8WZK7cO3IiVVHnGnqm-75">
          <mxGeometry y="86" width="165" height="50" as="geometry" />
        </mxCell>
        <mxCell id="7I8WZK7cO3IiVVHnGnqm-80" value="+ ucakKullanim (): boolean" style="text;html=1;align=center;verticalAlign=middle;resizable=0;points=[];autosize=1;strokeColor=none;fillColor=none;" vertex="1" parent="7I8WZK7cO3IiVVHnGnqm-75">
          <mxGeometry y="136" width="165" height="30" as="geometry" />
        </mxCell>
        <mxCell id="7I8WZK7cO3IiVVHnGnqm-81" value="+ pilot (): String" style="text;html=1;align=center;verticalAlign=middle;resizable=0;points=[];autosize=1;strokeColor=none;fillColor=none;" vertex="1" parent="7I8WZK7cO3IiVVHnGnqm-75">
          <mxGeometry y="166" width="165" height="30" as="geometry" />
        </mxCell>
        <mxCell id="7I8WZK7cO3IiVVHnGnqm-84" value="HavaYoluSirketi" style="swimlane;fontStyle=0;align=center;verticalAlign=top;childLayout=stackLayout;horizontal=1;startSize=26;horizontalStack=0;resizeParent=1;resizeLast=0;collapsible=1;marginBottom=0;rounded=0;shadow=0;strokeWidth=1;" vertex="1" parent="WIyWlLk6GJQsqaUBKTNV-1">
          <mxGeometry x="80" y="70" width="160" height="210" as="geometry">
            <mxRectangle x="130" y="380" width="160" height="26" as="alternateBounds" />
          </mxGeometry>
        </mxCell>
        <mxCell id="7I8WZK7cO3IiVVHnGnqm-85" value="- sirketId: int" style="text;html=1;align=center;verticalAlign=middle;resizable=0;points=[];autosize=1;strokeColor=none;fillColor=none;" vertex="1" parent="7I8WZK7cO3IiVVHnGnqm-84">
          <mxGeometry y="26" width="160" height="30" as="geometry" />
        </mxCell>
        <mxCell id="7I8WZK7cO3IiVVHnGnqm-93" value="+ucakTip: Ucak" style="text;html=1;align=center;verticalAlign=middle;resizable=0;points=[];autosize=1;strokeColor=none;fillColor=none;" vertex="1" parent="7I8WZK7cO3IiVVHnGnqm-84">
          <mxGeometry y="56" width="160" height="30" as="geometry" />
        </mxCell>
        <mxCell id="7I8WZK7cO3IiVVHnGnqm-86" value="+ pilot: Pilotlar" style="text;html=1;align=center;verticalAlign=middle;resizable=0;points=[];autosize=1;strokeColor=none;fillColor=none;" vertex="1" parent="7I8WZK7cO3IiVVHnGnqm-84">
          <mxGeometry y="86" width="160" height="30" as="geometry" />
        </mxCell>
        <mxCell id="7I8WZK7cO3IiVVHnGnqm-88" value="" style="line;html=1;strokeWidth=1;align=left;verticalAlign=middle;spacingTop=-1;spacingLeft=3;spacingRight=3;rotatable=0;labelPosition=right;points=[];portConstraint=eastwest;" vertex="1" parent="7I8WZK7cO3IiVVHnGnqm-84">
          <mxGeometry y="116" width="160" height="50" as="geometry" />
        </mxCell>
        <mxCell id="7I8WZK7cO3IiVVHnGnqm-89" value="+ ucus(): String" style="text;html=1;align=center;verticalAlign=middle;resizable=0;points=[];autosize=1;strokeColor=none;fillColor=none;" vertex="1" parent="7I8WZK7cO3IiVVHnGnqm-84">
          <mxGeometry y="166" width="160" height="30" as="geometry" />
        </mxCell>
        <mxCell id="7I8WZK7cO3IiVVHnGnqm-102" value="" style="endArrow=none;html=1;rounded=0;exitX=0.5;exitY=0;exitDx=0;exitDy=0;entryX=0.5;entryY=1;entryDx=0;entryDy=0;" edge="1" parent="WIyWlLk6GJQsqaUBKTNV-1" source="7I8WZK7cO3IiVVHnGnqm-75" target="7I8WZK7cO3IiVVHnGnqm-84">
          <mxGeometry width="50" height="50" relative="1" as="geometry">
            <mxPoint x="220" y="320" as="sourcePoint" />
            <mxPoint x="270" y="270" as="targetPoint" />
          </mxGeometry>
        </mxCell>
        <mxCell id="7I8WZK7cO3IiVVHnGnqm-103" value="" style="edgeStyle=orthogonalEdgeStyle;rounded=0;orthogonalLoop=1;jettySize=auto;html=1;" edge="1" parent="WIyWlLk6GJQsqaUBKTNV-1" source="7I8WZK7cO3IiVVHnGnqm-86" target="7I8WZK7cO3IiVVHnGnqm-45">
          <mxGeometry relative="1" as="geometry" />
        </mxCell>
        <mxCell id="7I8WZK7cO3IiVVHnGnqm-104" style="edgeStyle=orthogonalEdgeStyle;rounded=0;orthogonalLoop=1;jettySize=auto;html=1;entryX=0.002;entryY=0.505;entryDx=0;entryDy=0;entryPerimeter=0;" edge="1" parent="WIyWlLk6GJQsqaUBKTNV-1" target="7I8WZK7cO3IiVVHnGnqm-45">
          <mxGeometry relative="1" as="geometry">
            <mxPoint x="240" y="471" as="sourcePoint" />
          </mxGeometry>
        </mxCell>
        <mxCell id="7I8WZK7cO3IiVVHnGnqm-105" value="" style="endArrow=none;html=1;rounded=0;" edge="1" parent="WIyWlLk6GJQsqaUBKTNV-1">
          <mxGeometry width="50" height="50" relative="1" as="geometry">
            <mxPoint x="10" y="341" as="sourcePoint" />
            <mxPoint x="80" y="168" as="targetPoint" />
            <Array as="points">
              <mxPoint x="40" y="340" />
              <mxPoint x="40" y="168" />
            </Array>
          </mxGeometry>
        </mxCell>
        <mxCell id="7I8WZK7cO3IiVVHnGnqm-106" value="" style="endArrow=none;html=1;rounded=0;" edge="1" parent="WIyWlLk6GJQsqaUBKTNV-1">
          <mxGeometry width="50" height="50" relative="1" as="geometry">
            <mxPoint x="80" y="470" as="sourcePoint" />
            <mxPoint x="10" y="340" as="targetPoint" />
            <Array as="points">
              <mxPoint x="40" y="470" />
              <mxPoint x="40" y="340" />
            </Array>
          </mxGeometry>
        </mxCell>
        <mxCell id="7I8WZK7cO3IiVVHnGnqm-122" value="" style="edgeStyle=orthogonalEdgeStyle;rounded=0;orthogonalLoop=1;jettySize=auto;html=1;entryX=0.5;entryY=1;entryDx=0;entryDy=0;exitX=1;exitY=0.5;exitDx=0;exitDy=0;" edge="1" parent="WIyWlLk6GJQsqaUBKTNV-1" source="7I8WZK7cO3IiVVHnGnqm-108" target="7I8WZK7cO3IiVVHnGnqm-75">
          <mxGeometry relative="1" as="geometry">
            <mxPoint x="180" y="610" as="targetPoint" />
          </mxGeometry>
        </mxCell>
        <mxCell id="7I8WZK7cO3IiVVHnGnqm-108" value="Pilot" style="swimlane;fontStyle=0;align=center;verticalAlign=top;childLayout=stackLayout;horizontal=1;startSize=26;horizontalStack=0;resizeParent=1;resizeLast=0;collapsible=1;marginBottom=0;rounded=0;shadow=0;strokeWidth=1;" vertex="1" parent="WIyWlLk6GJQsqaUBKTNV-1">
          <mxGeometry x="-80" y="590" width="165" height="200" as="geometry">
            <mxRectangle x="130" y="380" width="160" height="26" as="alternateBounds" />
          </mxGeometry>
        </mxCell>
        <mxCell id="7I8WZK7cO3IiVVHnGnqm-109" value="+ deneyim: int" style="text;html=1;align=center;verticalAlign=middle;resizable=0;points=[];autosize=1;strokeColor=none;fillColor=none;" vertex="1" parent="7I8WZK7cO3IiVVHnGnqm-108">
          <mxGeometry y="26" width="165" height="30" as="geometry" />
        </mxCell>
        <mxCell id="7I8WZK7cO3IiVVHnGnqm-110" value="+ sirket: HavaYoluSirketi" style="text;html=1;align=center;verticalAlign=middle;resizable=0;points=[];autosize=1;strokeColor=none;fillColor=none;" vertex="1" parent="7I8WZK7cO3IiVVHnGnqm-108">
          <mxGeometry y="56" width="165" height="30" as="geometry" />
        </mxCell>
        <mxCell id="7I8WZK7cO3IiVVHnGnqm-111" value="" style="line;html=1;strokeWidth=1;align=left;verticalAlign=middle;spacingTop=-1;spacingLeft=3;spacingRight=3;rotatable=0;labelPosition=right;points=[];portConstraint=eastwest;" vertex="1" parent="7I8WZK7cO3IiVVHnGnqm-108">
          <mxGeometry y="86" width="165" height="50" as="geometry" />
        </mxCell>
        <mxCell id="7I8WZK7cO3IiVVHnGnqm-112" value="+ ucakKullanim (): boolean" style="text;html=1;align=center;verticalAlign=middle;resizable=0;points=[];autosize=1;strokeColor=none;fillColor=none;" vertex="1" parent="7I8WZK7cO3IiVVHnGnqm-108">
          <mxGeometry y="136" width="165" height="30" as="geometry" />
        </mxCell>
        <mxCell id="7I8WZK7cO3IiVVHnGnqm-113" value="+ pilot (): String" style="text;html=1;align=center;verticalAlign=middle;resizable=0;points=[];autosize=1;strokeColor=none;fillColor=none;" vertex="1" parent="7I8WZK7cO3IiVVHnGnqm-108">
          <mxGeometry y="166" width="165" height="30" as="geometry" />
        </mxCell>
        <mxCell id="7I8WZK7cO3IiVVHnGnqm-114" value="YardimciPilot" style="swimlane;fontStyle=0;align=center;verticalAlign=top;childLayout=stackLayout;horizontal=1;startSize=26;horizontalStack=0;resizeParent=1;resizeLast=0;collapsible=1;marginBottom=0;rounded=0;shadow=0;strokeWidth=1;" vertex="1" parent="WIyWlLk6GJQsqaUBKTNV-1">
          <mxGeometry x="240" y="590" width="165" height="200" as="geometry">
            <mxRectangle x="130" y="380" width="160" height="26" as="alternateBounds" />
          </mxGeometry>
        </mxCell>
        <mxCell id="7I8WZK7cO3IiVVHnGnqm-115" value="+ deneyim: int" style="text;html=1;align=center;verticalAlign=middle;resizable=0;points=[];autosize=1;strokeColor=none;fillColor=none;" vertex="1" parent="7I8WZK7cO3IiVVHnGnqm-114">
          <mxGeometry y="26" width="165" height="30" as="geometry" />
        </mxCell>
        <mxCell id="7I8WZK7cO3IiVVHnGnqm-116" value="+ sirket: HavaYoluSirketi" style="text;html=1;align=center;verticalAlign=middle;resizable=0;points=[];autosize=1;strokeColor=none;fillColor=none;" vertex="1" parent="7I8WZK7cO3IiVVHnGnqm-114">
          <mxGeometry y="56" width="165" height="30" as="geometry" />
        </mxCell>
        <mxCell id="7I8WZK7cO3IiVVHnGnqm-117" value="" style="line;html=1;strokeWidth=1;align=left;verticalAlign=middle;spacingTop=-1;spacingLeft=3;spacingRight=3;rotatable=0;labelPosition=right;points=[];portConstraint=eastwest;" vertex="1" parent="7I8WZK7cO3IiVVHnGnqm-114">
          <mxGeometry y="86" width="165" height="50" as="geometry" />
        </mxCell>
        <mxCell id="7I8WZK7cO3IiVVHnGnqm-118" value="+ ucakKullanim (): boolean" style="text;html=1;align=center;verticalAlign=middle;resizable=0;points=[];autosize=1;strokeColor=none;fillColor=none;" vertex="1" parent="7I8WZK7cO3IiVVHnGnqm-114">
          <mxGeometry y="136" width="165" height="30" as="geometry" />
        </mxCell>
        <mxCell id="7I8WZK7cO3IiVVHnGnqm-119" value="+ pilot (): String" style="text;html=1;align=center;verticalAlign=middle;resizable=0;points=[];autosize=1;strokeColor=none;fillColor=none;" vertex="1" parent="7I8WZK7cO3IiVVHnGnqm-114">
          <mxGeometry y="166" width="165" height="30" as="geometry" />
        </mxCell>
        <mxCell id="7I8WZK7cO3IiVVHnGnqm-124" value="" style="endArrow=classic;html=1;rounded=0;entryX=0.5;entryY=1;entryDx=0;entryDy=0;exitX=0;exitY=0.5;exitDx=0;exitDy=0;" edge="1" parent="WIyWlLk6GJQsqaUBKTNV-1" source="7I8WZK7cO3IiVVHnGnqm-114" target="7I8WZK7cO3IiVVHnGnqm-75">
          <mxGeometry width="50" height="50" relative="1" as="geometry">
            <mxPoint x="130" y="870" as="sourcePoint" />
            <mxPoint x="200" y="600" as="targetPoint" />
            <Array as="points">
              <mxPoint x="163" y="690" />
            </Array>
          </mxGeometry>
        </mxCell>
      </root>
    </mxGraphModel>
  </diagram>
</mxfile>
